<?xml version="1.0" standalone="no"?><!DOCTYPE svg PUBLIC "-//W3C//DTD SVG 1.1//EN" "http://www.w3.org/Graphics/SVG/1.1/DTD/svg11.dtd"><svg t="1749786298928" class="icon" viewBox="0 0 1280 1024" version="1.1" xmlns="http://www.w3.org/2000/svg" p-id="13804" xmlns:xlink="http://www.w3.org/1999/xlink" width="250" height="200"><path d="M288 640c88.22 0 160-71.78 160-160s-71.78-160-160-160-160 71.78-160 160 71.78 160 160 160z m0-256c52.94 0 96 43.06 96 96s-43.06 96-96 96-96-43.06-96-96 43.06-96 96-96z m768-64H544c-17.68 0-32 14.32-32 32v352H64V144c0-8.84-7.16-16-16-16H16c-8.84 0-16 7.16-16 16v736c0 8.84 7.16 16 16 16h32c8.84 0 16-7.16 16-16v-112h1152v112c0 8.84 7.16 16 16 16h32c8.84 0 16-7.16 16-16V544c0-123.72-100.28-224-224-224z m160 384H576V384h480c88.22 0 160 71.78 160 160v160z" p-id="13805"></path></svg>