<?xml version="1.0" standalone="no"?><!DOCTYPE svg PUBLIC "-//W3C//DTD SVG 1.1//EN" "http://www.w3.org/Graphics/SVG/1.1/DTD/svg11.dtd"><svg t="1749285164182" class="icon" viewBox="0 0 1024 1024" version="1.1" xmlns="http://www.w3.org/2000/svg" p-id="4296" xmlns:xlink="http://www.w3.org/1999/xlink" width="200" height="200"><path d="M170.5 164.5c0-18.1-14.5-36.3-36.3-36.3-21.8 0-36.3 14.5-36.3 36.3v725.2c0 18.1 14.5 36.3 36.3 36.3 21.8 0 36.3-14.5 36.3-36.3V703.3l684.7-0.1v186.5c0 18.1 14.5 36.3 36.3 36.3 21.8 0 36.3-14.5 36.3-36.3v-259l-757.2 0.1V164.5z" fill="#409eff" p-id="4297"></path><path d="M349.1 439.3c59.2 0 107.4-49.1 107.4-110.5 0-61.1-48-110.2-107.4-110.2-59.4 0-107.5 49.1-107.5 110.2-0.1 61.4 48 110.5 107.5 110.5z" fill="#409eff" p-id="4298"></path><path d="M253.2 568.4h674.4l0.4 3.6-0.4-152.2c-0.3-48.2-51.1-50.1-97-55.8H544.5l-41 99.2H263.9c-29.4 0-53.1 24.6-53.1 54.5 0 30.2 12.8 50.7 42.4 50.7z" fill="#409eff" p-id="4299"></path></svg>