<?xml version="1.0" standalone="no"?><!DOCTYPE svg PUBLIC "-//W3C//DTD SVG 1.1//EN" "http://www.w3.org/Graphics/SVG/1.1/DTD/svg11.dtd"><svg t="1749784940624" class="icon" viewBox="0 0 1024 1024" version="1.1" xmlns="http://www.w3.org/2000/svg" p-id="6385" xmlns:xlink="http://www.w3.org/1999/xlink" width="200" height="200"><path d="M656.3 728c28 8.1 55.2 26.9 49.4 60.5-3.8 22.3-20.9 41.1-44.5 41.7-91.4 2.2-128.8 6.2-186.5-20.2-25.6-11.7-40.5-35.5-51.1-61 99.8 62.9 121.2 55.5 236.1 52.7 7.8-0.2 18.1-6.2 18.1-18 0.1-27.5-20.8-32.4-59.5-39.6-33.4-6.1-61.6-4.8-86.5-27.3-84.6-76.2-162.1-89.1-261-43.3-28.2 13.1-55.4 29.8-82.5 45.2v139.4c37.2-12.4 79-28 116.3-37.3 16.3-4 31.1 0.5 46 8.4 98.2 52.2 103.2 51.8 214 70.4 14.7 2.5 27.5 2.1 41.7-2.4 139.3-43 151.1-47.7 291.9-136 45.9-28.8 17.9-75.6-31.1-55.6-8.5 3.4-17.1 6.9-25.6 10.3 4.7-15.9-18.4-27-41.4-18.4-5.1 2-10.7 4.4-16.9 7.4 1.9-17.2-21.5-27.9-54.2-14.7-7.7 3.5-56.1 30.4-72.7 37.8z m127.5-327.6C736 483.5 638.4 565 574.6 597.5c-64-32.5-161.6-114-209.4-197.1H455c4.3 0 8.4-1.6 11.5-4.4l41.8-32.4 49.9 98c4.3 8.5 14.7 11.8 23.1 7.6 4.5-2.3 7.7-6.4 8.9-11.3l46.4-139.5 40.4 73.2c3.2 5.7 9 9 15.1 9h91.7v-0.2z" p-id="6386" fill="#2fa4f5"></path><path d="M574.6 209.6c-86.5-88.7-237.7-27.3-237.7 101.1 0 17.8 4.2 36.5 11.7 55.5h100.8L504 324c7.5-5.8 18.2-4.4 24 3.1 0.7 0.9 1.3 1.8 1.7 2.7l40.7 79.9 46.3-139.1c3-9 12.7-13.9 21.6-10.9 4.2 1.4 7.6 4.3 9.6 8.1l54.4 98.6h98.3c7.5-18.9 11.7-37.7 11.7-55.5 0-128.5-151.4-189.9-237.7-101.3z" p-id="6387" fill="#2fa4f5"></path></svg>